<svg aria-hidden="true" style="position: absolute; width: 0; height: 0; overflow: hidden;" version="1.1" xmlns="http://www.w3.org/2000/svg" xmlns:xlink="http://www.w3.org/1999/xlink">
<defs>
<symbol id="icon-logo" viewBox="0 0 54 32">
<path d="M52.546 8.352l1.305-7.235c0.109-0.581-0.357-1.117-0.948-1.117h-42.583c-0.342 0-0.668 0.184-0.839 0.474l-8.824 15.052c-0.171 0.291-0.171 0.658 0 0.948l8.824 15.036c0.171 0.291 0.497 0.474 0.839 0.474h37.456c0.466 0 0.87-0.337 0.948-0.795l1.305-7.327c0.109-0.581-0.357-1.117-0.948-1.117h-11.139c-0.606 0-1.056-0.535-0.948-1.132l0.155-0.826c0.078-0.459 0.482-0.78 0.948-0.78h9.71c0.466 0 0.87-0.336 0.963-0.795l1.103-6.226c0.109-0.581-0.357-1.117-0.963-1.117h-9.026c-0.606 0-1.056-0.535-0.963-1.117l0.14-0.826c0.078-0.459 0.482-0.795 0.963-0.795h11.543c0.497 0.015 0.901-0.321 0.979-0.78zM12.449 26.478l-5.857-10.004c-0.171-0.291-0.171-0.658 0-0.948l5.857-10.004c0.171-0.291 0.497-0.474 0.839-0.474h11.729c0.342 0 0.668 0.184 0.839 0.474l5.857 10.004c0.171 0.291 0.171 0.658 0 0.948l-5.857 10.004c-0.171 0.291-0.497 0.474-0.839 0.474h-11.729c-0.357 0-0.668-0.184-0.839-0.474z"></path>
</symbol>
<symbol id="icon-location" viewBox="0 0 19 32">
<path d="M9.6 0c-5.303 0-9.6 4.381-9.6 9.786 0 11.806 9.6 22.214 9.6 22.214s9.6-10.563 9.6-22.214c0-5.406-4.297-9.786-9.6-9.786zM9.6 15.068c-2.865 0-5.181-2.361-5.181-5.282s2.316-5.282 5.181-5.282c2.865 0 5.181 2.361 5.181 5.282s-2.316 5.282-5.181 5.282z"></path>
</symbol>
<symbol id="icon-instagram" viewBox="0 0 33 32">
<path  d="M24.635 0c0.634 0.116 1.273 0.189 1.894 0.36 2.495 0.701 4.35 2.159 5.559 4.336 0.724 1.305 1.021 2.701 1.015 4.171-0.007 4.531 0 9.062 0 13.593 0 1.982-0.588 3.793-1.881 5.36-1.855 2.238-4.311 3.372-7.317 3.397-2.637 0.024-5.275 0.006-7.918 0.006-2.198 0-4.395 0-6.593 0-3.251-0.006-5.856-1.226-7.757-3.726-1.118-1.47-1.629-3.141-1.629-4.946-0.006-4.647-0.013-9.287 0-13.934 0.013-3.775 2.553-7.049 6.361-8.196 0.679-0.201 1.403-0.281 2.107-0.421 5.385 0 10.775 0 16.16 0zM16.555 28.448c0 0.006 0 0.006 0 0 2.282 0.006 4.564 0.006 6.852 0.006 0.853 0 1.7-0.037 2.514-0.305 2.612-0.854 4.228-3 4.24-5.677 0.013-4.561 0.006-9.123 0.006-13.684 0-1.098-0.233-2.147-0.84-3.086-1.267-1.976-3.154-2.927-5.585-2.933-4.803-0.006-9.606 0-14.408 0-0.957 0-1.894 0.134-2.76 0.537-2.392 1.116-3.613 2.952-3.626 5.458-0.026 4.574-0.006 9.147 0 13.715 0 1.098 0.239 2.14 0.86 3.080 1.254 1.915 3.096 2.878 5.481 2.89 2.418 0.012 4.842 0 7.266 0z"></path>
<path  d="M25.089 15.63c-0.045 4.47-3.911 8.074-8.591 8.025-4.686-0.049-8.5-3.689-8.468-8.086 0.032-4.421 3.898-8.050 8.545-8.007 4.764 0.043 8.487 3.641 8.513 8.068zM16.524 20.88c3.096 0.018 5.617-2.342 5.617-5.263 0.006-2.903-2.482-5.25-5.585-5.269-3.045-0.018-5.559 2.336-5.585 5.238-0.026 2.89 2.469 5.275 5.553 5.293z"></path>
<path  d="M25.412 5.226c1.17-0.031 2.146 0.874 2.185 2.030 0.032 1.077-0.944 2.030-2.094 2.055-1.196 0.025-2.185-0.868-2.217-2-0.026-1.12 0.924-2.055 2.127-2.086z"></path>
</symbol>
<symbol id="icon-tel" viewBox="0 0 32 32">
<path  d="M0 6.274c0.057-0.261 0.102-0.511 0.159-0.772 0.182-0.704 0.51-1.339 1.021-1.85 0.93-0.93 1.849-1.861 2.79-2.78 0.783-0.76 1.69-1.135 2.756-0.681 0.374 0.159 0.737 0.397 1.021 0.681 1.407 1.373 2.79 2.757 4.163 4.153 0.613 0.624 1.010 1.35 0.873 2.258-0.102 0.681-0.499 1.203-0.964 1.679-0.783 0.783-1.565 1.566-2.348 2.338-0.408 0.409-0.408 0.511-0.181 1.033 0.896 1.997 2.257 3.654 3.721 5.243 1.463 1.577 3.063 2.996 4.889 4.142 0.624 0.386 1.293 0.704 1.94 1.055 0.295 0.159 0.522 0.034 0.737-0.182 0.817-0.817 1.611-1.645 2.45-2.44 0.329-0.318 0.703-0.613 1.112-0.794 0.84-0.386 1.645-0.204 2.371 0.318 0.181 0.136 0.352 0.295 0.522 0.454 1.327 1.316 2.654 2.621 3.959 3.96 0.318 0.329 0.613 0.704 0.794 1.112 0.408 0.874 0.25 1.759-0.386 2.451-1.021 1.124-2.098 2.201-3.188 3.257-0.601 0.579-1.372 0.874-2.201 1.010-0.102 0.011-0.204 0.045-0.295 0.068-0.442 0-0.873 0-1.316 0-0.079-0.023-0.148-0.045-0.227-0.057-0.987-0.204-2.008-0.329-2.961-0.636-2.847-0.896-5.422-2.36-7.838-4.074-4.39-3.109-7.906-7.024-10.572-11.699-1.010-1.759-1.826-3.608-2.359-5.572-0.193-0.704-0.295-1.43-0.442-2.156 0-0.499 0-1.010 0-1.521z"></path>
</symbol>
</defs>
</svg>
